<?xml version="1.0" encoding="UTF-8"?>
<svg xmlns="http://www.w3.org/2000/svg" xmlns:xlink="http://www.w3.org/1999/xlink" width="64pt" height="64pt" viewBox="0 0 64 64" version="1.1">
<g id="surface2218210">
<path style=" stroke:none;fill-rule:nonzero;fill:rgb(100%,100%,100%);fill-opacity:1;" d="M 52.5 30.449219 L 52.5 44.5 C 52.5 46.148438 51.75 47.75 50.5 48.800781 C 40.050781 57.199219 24.699219 57.449219 14.5 48.851562 C 13.25 47.75 12.5 46.148438 12.5 44.5 L 12.5 30.351562 "/>
<path style=" stroke:none;fill-rule:nonzero;fill:rgb(100%,100%,100%);fill-opacity:1;" d="M 5 27 L 33 39.5 L 60 27 L 33 14.5 Z M 5 27 "/>
<path style=" stroke:none;fill-rule:nonzero;fill:rgb(48.627451%,64.705882%,77.647059%);fill-opacity:1;" d="M 33 39.5 L 23.949219 35.449219 C 29.101562 39.851562 35.699219 42.199219 42.5 42.101562 L 42.5 53.300781 C 45.351562 52.25 48.050781 50.699219 50.5 48.75 C 51.800781 47.699219 52.5 46.101562 52.5 44.449219 L 52.5 30.449219 Z M 33 39.5 "/>
<path style=" stroke:none;fill-rule:nonzero;fill:rgb(27.058824%,29.411765%,32.941176%);fill-opacity:1;" d="M 32.25 56.648438 C 25.5 56.648438 18.800781 54.449219 13.550781 50 C 11.949219 48.648438 11.050781 46.648438 11.050781 44.5 L 11.050781 30.351562 C 11.050781 29.5 11.699219 28.851562 12.550781 28.851562 C 13.398438 28.851562 14.050781 29.5 14.050781 30.351562 L 14.050781 44.5 C 14.050781 45.75 14.601562 46.898438 15.5 47.699219 C 24.949219 55.699219 39.601562 55.648438 49.601562 47.648438 C 50.550781 46.898438 51.050781 45.75 51.050781 44.5 L 51.050781 30.449219 C 51.050781 29.601562 51.699219 28.949219 52.550781 28.949219 C 53.398438 28.949219 54.050781 29.601562 54.050781 30.449219 L 54.050781 44.5 C 54.050781 46.648438 53.101562 48.648438 51.449219 49.949219 C 45.851562 54.449219 39 56.648438 32.25 56.648438 Z M 32.25 56.648438 "/>
<path style=" stroke:none;fill-rule:nonzero;fill:rgb(27.058824%,29.411765%,32.941176%);fill-opacity:1;" d="M 33 41 C 32.800781 41 32.601562 40.949219 32.398438 40.851562 L 4.398438 28.351562 C 3.851562 28.148438 3.5 27.601562 3.5 27 C 3.5 26.398438 3.851562 25.851562 4.398438 25.648438 L 32.398438 13.148438 C 32.800781 12.949219 33.25 13 33.648438 13.148438 L 60.648438 25.648438 C 61.199219 25.898438 61.5 26.449219 61.5 27 C 61.5 27.550781 61.148438 28.101562 60.648438 28.351562 L 33.648438 40.851562 C 33.449219 40.949219 33.199219 41 33 41 Z M 8.699219 27 L 33 37.851562 L 56.449219 27 L 33 16.148438 Z M 60 42.949219 C 59.148438 42.949219 58.5 42.300781 58.5 41.449219 L 58.5 32 C 58.5 31.148438 59.148438 30.5 60 30.5 C 60.851562 30.5 61.5 31.148438 61.5 32 L 61.5 41.449219 C 61.5 42.25 60.851562 42.949219 60 42.949219 Z M 60 42.949219 "/>
</g>
</svg>
