<?xml version="1.0" encoding="UTF-8"?>
<svg xmlns="http://www.w3.org/2000/svg" xmlns:xlink="http://www.w3.org/1999/xlink" width="64pt" height="64pt" viewBox="0 0 64 64" version="1.1">
<g id="surface2214342">
<path style=" stroke:none;fill-rule:nonzero;fill:rgb(20.392157%,28.627451%,36.862745%);fill-opacity:1;" d="M 56 45.699219 C 57.601562 42.851562 56.449219 38.800781 52.699219 34.25 C 52.101562 33.5 51.398438 32.75 50.699219 32 C 56 26.550781 57.898438 21.601562 56 18.25 C 55.199219 16.851562 53.851562 15.898438 51.949219 15.398438 C 46.351562 13.898438 36.449219 16.601562 26.648438 22.25 C 25.949219 22.648438 25.25 23.050781 24.601562 23.5 C 25.949219 13.449219 29.398438 7.5 32.25 7.5 C 34 7.5 35.949219 9.75 37.449219 13.5 C 37.75 14.25 38.648438 14.648438 39.398438 14.351562 C 40.148438 14.050781 40.550781 13.148438 40.25 12.398438 C 37.601562 5.851562 34.449219 4.5 32.25 4.5 C 28 4.5 24.898438 9.5 23.050781 16.050781 C 15.699219 14.199219 10.398438 15 8.5 18.351562 C 5.300781 23.898438 13.148438 34 26.648438 41.800781 C 27.351562 42.199219 28.050781 42.601562 28.75 42.949219 C 22.5 45.550781 16.75 46.648438 13.351562 45.75 C 12.25 45.449219 11.5 44.949219 11.148438 44.300781 C 10.25 42.75 11.25 39.898438 13.75 36.699219 C 14.25 36.050781 14.148438 35.101562 13.5 34.601562 C 12.851562 34.101562 11.898438 34.199219 11.398438 34.851562 C 7.898438 39.199219 6.949219 43 8.5 45.75 C 9.300781 47.148438 10.648438 48.101562 12.550781 48.601562 C 13.601562 48.898438 14.75 49 16.050781 49 C 18.101562 49 20.449219 48.648438 23 48 C 25.050781 55.300781 28.398438 59.5 32.199219 59.5 C 36.898438 59.5 42.101562 52.550781 43.25 37.101562 C 43.351562 35.449219 43.449219 33.699219 43.449219 32 C 43.449219 31.199219 43.449219 30.351562 43.398438 29.550781 C 51.148438 35.5 54.898438 41.550781 53.398438 44.199219 C 52.550781 45.699219 49.800781 46.300781 45.851562 45.800781 C 45.050781 45.699219 44.300781 46.25 44.148438 47.101562 C 44.050781 47.898438 44.601562 48.648438 45.449219 48.800781 C 46.550781 48.949219 47.550781 49 48.449219 49 C 53.050781 48.949219 55.101562 47.25 56 45.699219 Z M 37.851562 22.25 C 37.148438 21.851562 36.199219 22.101562 35.800781 22.800781 C 35.398438 23.5 35.648438 24.449219 36.351562 24.851562 C 37.75 25.648438 39.050781 26.5 40.300781 27.300781 C 40.398438 28.851562 40.449219 30.398438 40.449219 32 C 40.449219 33.648438 40.398438 35.300781 40.300781 36.898438 C 39.601562 46.300781 36.351562 56.5 32.25 56.5 C 29.949219 56.5 27.5 52.851562 25.898438 47.148438 C 29.699219 45.898438 33.800781 44.101562 37.851562 41.699219 C 38.550781 41.300781 38.800781 40.351562 38.398438 39.648438 C 38 38.949219 37.050781 38.699219 36.351562 39.101562 C 35 39.898438 33.601562 40.601562 32.25 41.300781 C 30.898438 40.648438 29.5 39.898438 28.148438 39.101562 C 15.699219 31.898438 9.148438 23.101562 11.101562 19.75 C 12.25 17.75 16.601562 17.449219 22.351562 18.898438 C 21.898438 21.101562 21.550781 23.351562 21.351562 25.648438 C 21.199219 27.550781 21.101562 29.550781 21.050781 31.550781 L 21.050781 31.949219 C 21.050781 32.800781 21.699219 33.449219 22.550781 33.449219 C 23.398438 33.449219 24.050781 32.800781 24.050781 31.949219 L 24.050781 31.550781 C 24.050781 30.101562 24.101562 28.699219 24.199219 27.300781 C 25.449219 26.449219 26.800781 25.601562 28.148438 24.800781 C 37.101562 19.601562 46.351562 16.949219 51.148438 18.25 C 52.25 18.550781 53 19.050781 53.351562 19.699219 C 54.5 21.699219 52.601562 25.601562 48.5 29.851562 C 45.5 27.199219 41.851562 24.550781 37.851562 22.25 Z M 37.851562 22.25 "/>
</g>
</svg>
