<?xml version="1.0" encoding="UTF-8"?>
<!DOCTYPE svg PUBLIC "-//W3C//DTD SVG 1.1//EN" "http://www.w3.org/Graphics/SVG/1.1/DTD/svg11.dtd">
<!-- Creator: CorelDRAW 2019 (64-Bit) -->
<svg xmlns="http://www.w3.org/2000/svg" xml:space="preserve" width="56px" height="64px" version="1.1"
     style="shape-rendering:geometricPrecision; text-rendering:geometricPrecision; image-rendering:optimizeQuality; fill-rule:evenodd; clip-rule:evenodd"
     viewBox="0 0 1.57 1.78"
>
 <defs>
  <style type="text/css">
   <![CDATA[
    .str0 {stroke:#786608;stroke-width:0.07;stroke-miterlimit:22.9256}
    .fil12 {fill:none}
    .fil1 {fill:#090909}
    .fil7 {fill:#093109}
    .fil5 {fill:#150B06}
    .fil9 {fill:#4C0B0B}
    .fil8 {fill:#6B310A}
    .fil4 {fill:#786608}
    .fil11 {fill:#8C8C8C}
    .fil2 {fill:#CEB013}
    .fil10 {fill:#EEEEEC}
    .fil3 {fill:#FAD816}
    .fil6 {fill:#FCD806}
    .fil0 {fill:#FCE706}
    .fil13 {fill:#373435;fill-rule:nonzero}
    .fil14 {fill:#730D0D;fill-rule:nonzero}
   ]]>
  </style>
 </defs>
 <g id="Capa_x0020_1">
  <metadata id="CorelCorpID_0Corel-Layer"/>
  <path class="fil0" d="M0.1 1.09c-0.02,0.04 -0.05,0.08 -0.08,0.12 0.02,0.06 0.2,0.23 0.25,0.28 0.05,0.04 0.1,0.07 0.15,0.1 0.04,0.03 0.12,0.08 0.15,0.1l0.16 0.06 0.14 -0.01 0.16 -0.06c0.04,-0.03 0.1,-0.06 0.15,-0.1 0.14,-0.1 0.21,-0.17 0.31,-0.32 0.08,-0.11 0.06,-0.04 -0.03,-0.22 -0.03,-0.05 -0.06,-0.11 -0.07,-0.17 -0.04,-0.13 -0.03,-0.27 0,-0.4 0,-0.01 0.01,-0.01 0.02,-0.02 0,0 0,-0.01 0,-0.02 0.01,-0.01 0.03,-0.04 0.03,-0.04 0.01,-0.01 0.04,-0.04 0.04,-0.05 -0.02,0 -0.04,-0.05 -0.05,-0.05 -0.02,0 -0.03,0.03 -0.05,0.04l-0.04 0.13c-0.04,0.01 -0.03,0.05 -0.04,0.13 -0.03,0.12 0,0.25 0.04,0.35 0.01,0.01 0.01,0.02 0.01,0.03l0.03 0.05c0.08,0.14 0.12,0.13 0.06,0.22 -0.01,0.02 -0.02,0.02 -0.03,0.04 -0.02,0.03 -0.05,0.07 -0.07,0.09 -0.05,0.04 -0.1,0.09 -0.16,0.13 -0.02,0.02 -0.05,0.03 -0.09,0.06 -0.01,0.01 -0.03,0.02 -0.04,0.03l-0.05 0.02c-0.05,0.02 -0.15,0.08 -0.21,0.07 -0.18,-0.03 -0.34,-0.12 -0.49,-0.24 -0.03,-0.02 -0.11,-0.09 -0.13,-0.12 -0.03,-0.03 -0.03,-0.02 -0.06,-0.07 0,0 0,0 0,0 0,0 -0.01,0 -0.01,-0.01 -0.01,-0.01 0,-0.01 -0.01,-0.02 0.01,-0.04 0.03,-0.06 0.04,-0.09 0.1,-0.15 0.18,-0.35 0.13,-0.55 0,-0.02 -0.01,-0.03 -0.02,-0.05 -0.01,-0.05 -0.01,-0.06 -0.05,-0.07 0,0.19 0.09,0.15 0.01,0.45 -0.02,0.07 0,0.03 -0.02,0.05 0,0.01 0,0.01 -0.01,0.01 -0.01,0.02 0,0.02 -0.01,0.04 -0.01,0.01 -0.01,0.01 -0.02,0.03 -0.01,0.01 0,0.01 -0.01,0.02 -0.02,0.04 -0.01,0.01 -0.02,0.04 -0.02,0 0,0.02 -0.01,-0.01z"/>
  <path class="fil1" d="M1.1 0.87c0,0 -0.01,0.05 -0.01,0.07 0.01,0.02 0.04,0.07 0,0.09 -0.01,-0.02 0,-0.02 -0.02,-0.04 -0.03,0.03 -0.01,0.01 -0.03,0.05 -0.02,0.03 0,0.01 -0.03,0.02 -0.09,0.04 -0.05,0.09 -0.06,0.14 -0.02,0.03 -0.12,0.11 -0.17,0.11 -0.02,0 -0.06,-0.03 -0.08,-0.05 -0.03,-0.02 -0.06,-0.03 -0.07,-0.06 0.01,-0.07 0.01,-0.12 -0.05,-0.14 -0.02,0.03 -0.01,0.04 -0.01,0.08 -0.02,-0.01 -0.03,-0.02 -0.03,-0.04 0.02,-0.03 0.03,-0.03 0.01,-0.07 -0.01,-0.03 -0.02,-0.05 -0.05,-0.05 -0.01,0.02 0,0.03 0,0.06 -0.05,-0.03 -0.01,-0.07 -0.01,-0.08 0.01,-0.02 0,-0.04 0,-0.06 -0.01,-0.02 -0.01,-0.03 -0.02,-0.03 -0.04,0.02 -0.02,0.02 -0.04,0.05 -0.01,-0.01 -0.01,-0.03 -0.01,-0.06 0.03,-0.03 0.05,-0.03 0.05,-0.11 -0.04,0 -0.05,0.02 -0.06,0.06 -0.02,-0.05 0.06,-0.11 0,-0.17 -0.03,0.01 -0.01,0.01 -0.04,0.02 0,0.03 -0.02,0.03 -0.01,0.08 0,0.03 0.02,0.03 0.02,0.07 -0.01,-0.01 -0.02,-0.02 -0.03,-0.04 -0.02,0.03 -0.02,0.07 0,0.09 0.02,0.03 0.05,0.02 0.05,0.07 -0.02,-0.01 -0.03,-0.02 -0.07,-0.03 0,0.06 0.02,0.07 0.06,0.09 0.04,0.02 0.06,0 0.07,0.06 -0.04,-0.01 -0.06,-0.04 -0.11,-0.03 0.01,0.03 0.06,0.08 0.08,0.09 0.04,0.01 0.08,0.01 0.11,0.04 0,0 0.01,0.01 -0.02,0 -0.01,0 -0.02,-0.02 -0.08,-0.01 0,0.03 0.03,0.06 0.06,0.06 0.04,0.02 0.06,0 0.1,0.03 0.03,0.01 0.13,0.07 0.14,0.1 -0.02,0.02 -0.03,0.01 -0.04,0.04 0.05,0.01 0.09,-0.04 0.11,0 0.03,0.01 0.05,0.02 0.07,0 -0.03,-0.02 -0.03,-0.01 -0.06,-0.04 0.02,-0.01 0.16,-0.1 0.17,-0.1 0.04,0 0.05,0.03 0.1,0.01 0.03,-0.02 0.06,-0.05 0.07,-0.08l-0.12 0.01c0.05,-0.09 0.16,0.02 0.19,-0.13 -0.06,0 -0.09,0.03 -0.13,0.06 0.01,-0.02 0.03,-0.08 0.05,-0.09 0.04,-0.02 0.04,0.01 0.08,-0.03 0.02,-0.02 0.03,-0.04 0.03,-0.08 -0.03,0 -0.06,0.03 -0.09,0.04 0.01,-0.07 0.02,-0.05 0.07,-0.08 0.03,-0.02 0.04,-0.06 0.01,-0.1 -0.03,0.01 -0.02,0.03 -0.05,0.05 0,-0.08 0.03,-0.06 0.03,-0.11 0,-0.03 -0.03,-0.08 -0.05,-0.09 -0.02,0.02 -0.03,0.06 -0.03,0.09 0.01,0.04 0.03,0.04 0.03,0.08 -0.02,-0.02 -0.03,-0.03 -0.06,-0.04 -0.01,0.04 -0.01,0.05 0.01,0.08 0.01,0.03 0.02,0.01 0.02,0.06 -0.03,-0.01 0,-0.01 -0.03,-0.03l-0.02 0.02z"/>
  <path class="fil2" d="M0.16 1.27c-0.02,-0.01 -0.04,-0.04 -0.05,-0.06 0.02,-0.03 0.04,-0.06 0.06,-0.08 0.02,-0.04 0.03,-0.06 0.04,-0.09 0.02,-0.04 0.07,-0.16 0.07,-0.21 0.04,-0.32 -0.08,-0.4 -0.09,-0.45l0.03 -0.05c0.04,-0.13 0.03,-0.11 0.12,-0.13 0.1,-0.03 0.1,-0.09 0.17,-0.07 0,0.04 -0.01,0.03 -0.01,0.07 0.14,0.02 0.08,-0.07 0.26,-0.08 0.16,-0.02 0.17,0.08 0.28,0.05 0,-0.04 -0.01,-0.02 0,-0.06 0.04,-0.01 0.07,0.01 0.1,0.03 0.04,0.03 0.06,0.03 0.11,0.04 0.05,0.01 0.04,0.02 0.07,0.07l0.05 0.1c0.01,0.03 -0.05,0.07 -0.08,0.19 -0.03,0.15 -0.01,0.34 0.06,0.47 0.11,0.2 0.12,0.14 0.04,0.26 -0.12,0.17 -0.38,0.34 -0.56,0.39 -0.08,0.02 -0.32,-0.1 -0.38,-0.14 -0.06,-0.03 -0.26,-0.17 -0.29,-0.25zm0.01 -1.02c-0.01,0.02 -0.02,0.05 -0.03,0.07 -0.02,0.02 -0.03,0.04 -0.04,0.07 0.02,0.03 0.05,0.05 0.08,0.14 0.02,0.06 0.03,0.14 0.03,0.21 0,0.05 -0.02,0.14 -0.04,0.2 -0.02,0.05 -0.06,0.1 -0.07,0.15 0.01,0.03 -0.01,0.01 0.01,0.01 0.01,-0.03 0,0 0.02,-0.04 0.01,-0.01 0,-0.01 0.01,-0.02 0.01,-0.02 0.01,-0.02 0.02,-0.03 0.01,-0.02 0,-0.02 0.01,-0.04 0.01,0 0.01,0 0.01,-0.01 0.02,-0.02 0,0.02 0.02,-0.05 0.08,-0.3 -0.01,-0.26 -0.01,-0.45 0.04,0.01 0.04,0.02 0.05,0.07 0.01,0.02 0.02,0.03 0.02,0.05 0.05,0.2 -0.03,0.4 -0.13,0.55 -0.01,0.03 -0.03,0.05 -0.04,0.09 0.01,0.01 0,0.01 0.01,0.02 0,0.01 0.01,0.01 0.01,0.01 0,0 0,0 0,0 0.03,0.05 0.03,0.04 0.06,0.07 0.02,0.03 0.1,0.1 0.13,0.12 0.15,0.12 0.31,0.21 0.49,0.24 0.06,0.01 0.16,-0.05 0.21,-0.07l0.05 -0.02c0.01,-0.01 0.03,-0.02 0.04,-0.03 0.04,-0.03 0.07,-0.04 0.09,-0.06 0.06,-0.04 0.11,-0.09 0.16,-0.13 0.02,-0.02 0.05,-0.06 0.07,-0.09 0.01,-0.02 0.02,-0.02 0.03,-0.04 0.06,-0.09 0.02,-0.08 -0.06,-0.22l-0.02 -0.06c-0.01,0 -0.01,-0.01 -0.02,-0.02 -0.15,-0.4 0.08,-0.55 0.05,-0.6 -0.04,-0.04 -0.03,-0.04 -0.05,-0.09 -0.01,-0.01 -0.01,0 -0.01,-0.01l-0.01 -0.01c0,0 0,0 0,0 -0.02,-0.06 -0.01,-0.05 -0.03,-0.06 -0.02,-0.01 -0.1,-0.01 -0.2,-0.08 -0.01,-0.01 0,-0.02 -0.07,0 -0.01,0.02 -0.01,0.02 -0.01,0.06 -0.01,0 -0.01,0 -0.03,0 0,0 0,-0.01 -0.01,-0.01 0,0 0,0 0,0l-0.02 -0.01c-0.02,-0.01 -0.03,-0.02 -0.05,-0.02 -0.02,-0.01 -0.01,-0.01 -0.04,-0.01 -0.01,-0.01 -0.02,-0.01 -0.03,-0.01 -0.05,-0.01 -0.1,0 -0.15,0.01l-0.1 0.06c-0.03,0.02 -0.03,0.02 -0.06,0.01 0.02,-0.04 0.02,-0.08 -0.04,-0.07l-0.06 0.03c-0.08,0.06 -0.09,0.06 -0.19,0.07 -0.03,0.22 -0.06,0.08 -0.06,0.23 -0.07,-0.01 -0.06,-0.08 0,-0.11 -0.02,-0.05 0,-0.03 0,-0.07z"/>
  <path class="fil3" d="M0.17 0.25c0,0.04 -0.02,0.02 0,0.07 -0.06,0.03 -0.07,0.1 0,0.11 0,-0.15 0.03,-0.01 0.06,-0.23 0.1,-0.01 0.11,-0.01 0.19,-0.07l0.06 -0.03c0.06,-0.01 0.06,0.03 0.04,0.07 0.03,0.01 0.03,0.01 0.06,-0.01l0.1 -0.06c0.05,-0.01 0.1,-0.02 0.15,-0.01 0.01,0 0.02,0 0.03,0.01 0.03,0 0.02,0 0.04,0.01 0.02,0 0.03,0.01 0.05,0.02l0.02 0.01c0,0 0,0 0,0 0.01,0 0.01,0.01 0.01,0.01 0.02,0 0.02,0 0.03,0 0,-0.04 0,-0.04 0.01,-0.06 0.07,-0.02 0.06,-0.01 0.07,0 0.1,0.07 0.18,0.07 0.2,0.08 0.02,0.01 0.01,0 0.03,0.06 0,0 0,0 0,0l0.01 0.01c0,0.01 0,0 0.01,0.01 0.02,0.05 0.01,0.05 0.04,0.08l0.03 0.03c0,0 0,-0.01 0.01,-0.01l0.01 -0.02c0.01,0 -0.01,0 0.02,0l-0.01 -0.03c-0.02,-0.02 -0.04,-0.05 -0.05,-0.08 -0.02,-0.04 -0.03,-0.08 -0.04,-0.11 -0.04,0 -0.07,0.04 -0.2,-0.04 -0.03,-0.02 -0.05,-0.03 -0.1,-0.03 -0.05,0 -0.05,0.01 -0.09,0.03 -0.09,-0.02 -0.11,-0.09 -0.31,-0.03 -0.03,0.01 -0.06,0.05 -0.08,0.04 -0.04,0 -0.06,-0.07 -0.19,0.01 -0.1,0.05 -0.07,0.05 -0.19,0.06l-0.02 0.1z"/>
  <path class="fil4" d="M0.58 1.68c-0.02,-0.02 -0.12,-0.06 -0.16,-0.09 -0.05,-0.03 -0.1,-0.06 -0.15,-0.1 -0.05,-0.05 -0.23,-0.22 -0.25,-0.28 0.03,-0.04 0.06,-0.08 0.08,-0.12 0.01,-0.05 0.05,-0.1 0.07,-0.15 0.02,-0.06 0.04,-0.15 0.04,-0.2 0,-0.07 -0.01,-0.15 -0.03,-0.21 -0.03,-0.09 -0.06,-0.11 -0.08,-0.14 0.01,-0.03 0.02,-0.05 0.04,-0.07 0.01,-0.02 0.02,-0.05 0.03,-0.07l0.02 -0.1c0.12,-0.01 0.09,-0.01 0.19,-0.06 0.13,-0.08 0.15,-0.01 0.19,-0.01 0.02,0.01 0.05,-0.03 0.08,-0.04 0.2,-0.06 0.22,0.01 0.31,0.03 0.04,-0.02 0.04,-0.03 0.09,-0.03 0.05,0 0.07,0.01 0.1,0.03 0.13,0.08 0.16,0.04 0.2,0.04 0.01,0.03 0.02,0.07 0.04,0.11 0.01,0.03 0.03,0.06 0.05,0.08l0.03 0.04c-0.01,0.03 -0.02,0.04 -0.04,0.06 -0.02,0.04 -0.02,0.04 -0.04,0.06 -0.04,0.14 -0.05,0.25 0,0.41 0.01,0.06 0.04,0.12 0.07,0.17 0.09,0.18 0.11,0.11 0.03,0.22 -0.1,0.15 -0.17,0.22 -0.31,0.32 -0.05,0.04 -0.11,0.07 -0.15,0.1 0.13,0.02 0.54,-0.43 0.54,-0.5 -0.02,-0.03 -0.04,-0.06 -0.06,-0.08 -0.12,-0.19 -0.19,-0.46 -0.08,-0.67 0.02,-0.04 0.04,-0.06 0.06,-0.09 -0.01,-0.03 -0.01,-0.01 -0.04,-0.05 -0.07,-0.11 -0.05,-0.13 -0.09,-0.2 -0.07,0 -0.09,0.02 -0.16,-0.02 -0.05,-0.02 -0.07,-0.05 -0.14,-0.06 -0.07,-0.01 -0.07,0.06 -0.14,0.02 -0.11,-0.04 -0.2,-0.04 -0.31,0.01 -0.04,0.03 -0.02,0.03 -0.06,0.01 -0.03,-0.01 -0.05,-0.02 -0.08,-0.01 -0.06,0 -0.1,0.03 -0.13,0.06 -0.07,0.04 -0.08,0.03 -0.16,0.03l-0.02 0.03c-0.01,0.06 -0.01,0.1 -0.05,0.17 -0.01,0.02 -0.02,0.02 -0.04,0.05 0.02,0.05 0.16,0.14 0.11,0.45 -0.02,0.09 -0.08,0.23 -0.12,0.3 -0.02,0.02 -0.05,0.06 -0.06,0.09 0.05,0.12 0.43,0.46 0.58,0.46z"/>
  <path class="fil5" d="M0.62 0.68c0.04,0.01 0.02,0.01 0.06,0 0.02,0 0.02,0.01 0.05,0.01l0 0.04 0.02 0.01c0.02,0.02 0.01,-0.02 0.02,0.03 0,0 0,0.03 0,0.04 0.02,0 0.01,-0.01 0.02,0.02 0.03,-0.01 0.01,0.01 0.02,-0.02l0.02 -0.01 0 -0.03c0,0 0,0 0,0l0.01 -0.02c0,0 0,0 0,0 0.03,-0.01 0.03,-0.04 0.07,-0.01l0.17 0.11c0,0.06 -0.04,0.12 -0.06,0.15 -0.07,0.07 -0.06,0.02 -0.12,0 -0.06,-0.01 0.02,-0.04 -0.06,-0.03 -0.05,0 -0.01,0.02 -0.07,0 -0.04,-0.01 -0.12,0.02 -0.14,0 -0.01,-0.02 0.01,-0.09 0.01,-0.12 0.02,-0.01 0.01,0.01 0.03,-0.01l0 -0.01c-0.01,0 -0.03,0.01 -0.03,-0.01 -0.02,-0.01 -0.02,-0.01 -0.04,-0.02 -0.01,0.01 -0.01,0 -0.02,0.01l0.04 0.03c0.01,0.06 -0.03,0.11 0,0.15 0.06,0.01 0.09,-0.01 0.14,-0.01 0.01,0.05 0,0.04 0.02,0.08l0.04 0 0.01 -0.07c0.03,0 0.08,0.03 0.1,0.05 -0.04,0.07 -0.23,0.08 -0.34,-0.04 -0.03,-0.02 -0.02,-0.01 -0.04,-0.06 -0.05,-0.11 -0.02,-0.07 -0.04,-0.16 0.04,0 0.03,0.01 0.06,0.02 0.01,-0.01 0.02,0.02 0.01,-0.01 -0.02,-0.02 -0.03,-0.02 -0.06,-0.05 -0.01,-0.09 0.05,-0.15 0.08,-0.19l0.04 -0.02c0,0 0,0 0.01,-0.01 0.1,-0.04 0.2,-0.05 0.31,0.01 0.07,0.04 0.12,0.16 0.12,0.28 -0.03,0.01 -0.15,-0.08 -0.18,-0.1 -0.02,-0.02 -0.01,0.03 -0.02,-0.02 -0.02,0 -0.05,0.04 -0.07,0.06 -0.03,0.02 0.02,-0.01 -0.01,0 -0.04,0 0,0 -0.02,-0.01 -0.02,-0.02 0.01,0 -0.04,-0.01 0,-0.04 0,-0.02 0.02,-0.04 -0.12,-0.04 -0.04,-0.03 -0.1,-0.02 -0.02,0 -0.01,0 -0.03,0.01 0,0 0,0 0,0l-0.01 0zm0.47 0.26c0,-0.02 0.01,-0.07 0.01,-0.07 0,-0.11 -0.01,-0.21 -0.05,-0.28 -0.1,-0.18 -0.48,-0.18 -0.55,0.1 -0.08,0.3 0.17,0.51 0.44,0.39 0.02,-0.01 0.06,-0.04 0.08,-0.06 0.05,-0.04 0.04,-0.06 0.07,-0.08z"/>
  <path class="fil6" d="M0.65 0.52c0,0.02 0,0.02 0.03,0.04 0.03,0.02 0.07,0.05 0.09,0.05 0.06,0.01 0.05,-0.05 0.11,0.01 0.01,0.01 0.04,0.03 0.04,0.04 -0.01,0.05 -0.02,0 -0.02,0.05 0.03,0.02 0.15,0.11 0.18,0.1 0,-0.12 -0.05,-0.24 -0.12,-0.28 -0.11,-0.06 -0.21,-0.05 -0.31,-0.01z"/>
  <path class="fil7" d="M0.6 0.8c-0.01,-0.01 -0.01,-0.01 -0.02,-0.01 0.01,0.03 0,0 -0.01,0.01 -0.03,-0.01 -0.02,-0.02 -0.06,-0.02 0.02,0.09 -0.01,0.05 0.04,0.16 0.02,0.05 0.01,0.04 0.04,0.06 0.11,0.12 0.3,0.11 0.34,0.04 -0.02,-0.02 -0.07,-0.05 -0.1,-0.05l-0.01 0.07 -0.04 0c-0.02,-0.04 -0.01,-0.03 -0.02,-0.08 -0.05,0 -0.08,0.02 -0.14,0.01 -0.03,-0.04 0.01,-0.09 0,-0.15l-0.04 -0.03c0.01,-0.01 0.01,0 0.02,-0.01z"/>
  <path class="fil8" d="M0.6 0.55c0.04,0 0.11,0.05 0.12,0.08 -0.04,0.01 -0.06,0 -0.09,-0.01 -0.03,0 -0.06,0.03 -0.01,0.06l0.01 0c0,0 0,0 0,0 0.02,-0.01 0.01,-0.01 0.03,-0.01 0.06,-0.01 -0.02,-0.02 0.1,0.02 -0.02,0.02 -0.02,0 -0.02,0.04 0.05,0.01 0.02,-0.01 0.04,0.01 0.02,0.01 -0.02,0.01 0.02,0.01 0.03,-0.01 -0.02,0.02 0.01,0 0.02,-0.02 0.05,-0.06 0.07,-0.06 0.01,0.05 0,0 0.02,0.02 0,-0.05 0.01,0 0.02,-0.05 0,-0.01 -0.03,-0.03 -0.04,-0.04 -0.06,-0.06 -0.05,0 -0.11,-0.01 -0.02,0 -0.06,-0.03 -0.09,-0.05 -0.03,-0.02 -0.03,-0.02 -0.03,-0.04 -0.01,0.01 -0.01,0.01 -0.01,0.01l-0.04 0.02z"/>
  <path class="fil9" d="M0.83 0.8c0.04,-0.01 0.04,0 0.08,0 0.01,0.04 0.02,0.09 0.01,0.14 -0.01,0.01 -0.09,0 -0.11,-0.01l0 -0.12c-0.01,0.03 0.01,0.01 -0.02,0.02l0 0.1c-0.02,0.01 -0.04,0 -0.07,0 -0.02,0.01 -0.03,0.01 -0.05,0.01l0 -0.07 0 -0.03c-0.02,0.02 -0.01,0 -0.03,0.01 0,0.03 -0.02,0.1 -0.01,0.12 0.02,0.02 0.1,-0.01 0.14,0 0.06,0.02 0.02,0 0.07,0 0.08,-0.01 0,0.02 0.06,0.03 0.01,-0.03 -0.01,0 0.01,-0.01 0.03,-0.01 0.04,0.01 0.06,-0.01 0.01,-0.03 0,-0.11 0,-0.15 -0.03,-0.02 -0.09,-0.05 -0.13,-0.05l0 -0.03c0,0 0,0 0,0l-0.01 0.02c0,0 0,0 0,0l0 0.03z"/>
  <path class="fil10" d="M0.81 0.81l0 0.12c0.02,0.01 0.1,0.02 0.11,0.01 0.01,-0.05 0,-0.1 -0.01,-0.14 -0.04,0 -0.04,-0.01 -0.08,0l-0.02 0.01z"/>
  <path class="fil11" d="M0.64 0.82c0,0.02 0.02,0.01 0.03,0.01l0 0.01 0 0.03c0.06,0 0.02,0.01 0.06,0 0.03,0 0.03,0.03 0.05,-0.01l-0.1 -0.01c0.01,-0.03 0.05,-0.04 0.09,-0.04 0,-0.01 0,-0.04 0,-0.04 -0.01,-0.05 0,-0.01 -0.02,-0.03l0.01 0.04c-0.02,0.01 -0.05,0.01 -0.07,0.02 -0.02,0.02 -0.02,0.03 -0.05,0.02z"/>
  <path class="fil12 str0" d="M0.53 1.66c0.05,0.03 0.17,0.1 0.28,0.09 0.14,-0.01 0.27,-0.08 0.29,-0.1"/>
  <path class="fil13" d="M0.27 0.35l0.02 0 0.01 0.04c0,0.01 0,0.01 0,0.01 0.01,0.01 0.01,0.01 0.01,0.01 0,0 0.01,0 0.01,0 0.01,0 0.01,0 0.01,-0.01 0,0 0,0 0,-0.01 0,0 0,0 0,-0.01l-0.02 -0.05 0.02 0 0.01 0.04c0,0.01 0.01,0.02 0.01,0.02 0,0.01 0,0.01 0,0.02 -0.01,0 -0.01,0 -0.01,0.01 0,0 -0.01,0 -0.01,0 -0.01,0.01 -0.02,0.01 -0.02,0.01 0,0 -0.01,-0.01 -0.01,-0.01 0,0 -0.01,0 -0.01,0 0,-0.01 0,-0.02 0,-0.03l-0.02 -0.04z"/>
  <polygon id="1" class="fil13" points="0.37,0.41 0.35,0.32 0.36,0.32 0.4,0.36 0.39,0.31 0.4,0.3 0.43,0.39 0.41,0.39 0.37,0.35 0.38,0.4 "/>
  <polygon id="2" class="fil13" points="0.44,0.38 0.42,0.3 0.44,0.29 0.46,0.38 "/>
  <path id="3" class="fil13" d="M0.45 0.29l0.03 -0.01c0.01,0 0.01,0 0.02,0 0,0 0,0 0.01,0 0,0.01 0.01,0.01 0.01,0.02 0,0 0,0.01 0,0.02 0.01,0 0.01,0.01 0,0.02 0,0 0,0.01 0,0.01 0,0.01 -0.01,0.01 -0.01,0.01 0,0 -0.01,0 -0.01,0.01l-0.03 0 -0.02 -0.08zm0.02 0.01l0.01 0.05 0.01 0c0.01,0 0.01,0 0.01,0 0,0 0.01,0 0.01,-0.01 0,0 0,0 0,0 0,-0.01 0,-0.01 0,-0.02 0,-0.01 0,-0.01 -0.01,-0.02 0,0 0,0 0,0 0,0 -0.01,-0.01 -0.01,-0.01 0,0 -0.01,0.01 -0.01,0.01l-0.01 0z"/>
  <path id="4" class="fil13" d="M0.61 0.34l-0.02 0.01 0 -0.02 -0.03 0 -0.01 0.02 -0.01 0.01 0.01 -0.09 0.02 -0.01 0.04 0.08zm-0.03 -0.03l-0.02 -0.03 0 0.04 0.02 -0.01z"/>
  <path id="5" class="fil13" d="M0.61 0.26l0.03 -0.01c0,0 0.01,0 0.01,0 0.01,0 0.01,0.01 0.01,0.01 0.01,0 0.01,0.01 0.01,0.01 0.01,0.01 0.01,0.02 0.01,0.02 0,0.01 0,0.02 0,0.02 0,0.01 -0.01,0.01 -0.01,0.02 0,0 -0.01,0 -0.01,0.01 0,0 -0.01,0 -0.01,0l-0.03 0 -0.01 -0.08zm0.02 0.01l0 0.06 0.01 0c0.01,0 0.01,-0.01 0.01,-0.01 0.01,0 0.01,0 0.01,0 0,0 0,-0.01 0,-0.01 0,0 0,-0.01 0,-0.02 0,0 0,-0.01 0,-0.01 0,0 0,-0.01 -0.01,-0.01 0,0 0,0 0,0 -0.01,0 -0.01,0 -0.02,0l0 0z"/>
  <polygon id="6" class="fil13" points="0.72,0.33 0.72,0.25 0.78,0.24 0.78,0.26 0.74,0.26 0.74,0.28 0.78,0.28 0.78,0.29 0.74,0.29 0.74,0.32 0.78,0.32 0.78,0.33 "/>
  <path id="7" class="fil13" d="M0.79 0.24l0.03 0.01c0.01,0 0.01,0 0.02,0 0,0 0.01,0 0.01,0.01 0,0 0,0 0.01,0.01 0,0.01 0,0.01 0,0.02 0,0.01 0,0.01 -0.01,0.02 0,0 0,0.01 0,0.01 -0.01,0.01 -0.01,0.01 -0.01,0.01 -0.01,0 -0.01,0 -0.02,0l-0.03 0 0 -0.09zm0.02 0.02l0 0.06 0.01 0c0,0 0.01,0 0.01,0 0,0 0,-0.01 0.01,-0.01 0,0 0,0 0,-0.01 0,0 0,0 0,-0.01 0,-0.01 0,-0.01 0,-0.02 0,0 0,0 0,0 -0.01,-0.01 -0.01,-0.01 -0.01,-0.01 0,0 -0.01,0 -0.01,0l-0.01 0z"/>
  <path id="8" class="fil13" d="M0.87 0.25l0.02 0 0 0.04c0,0.01 0,0.02 0,0.02 0,0 0,0.01 0,0.01 0,0 0.01,0 0.01,0 0,0 0.01,0 0.01,0 0,0 0,-0.01 0,-0.01 0.01,0 0.01,-0.01 0.01,-0.01l0 -0.05 0.01 0 0 0.05c0,0.01 0,0.01 0,0.02 0,0 0,0 -0.01,0.01 0,0 0,0 -0.01,0 0,0.01 0,0.01 -0.01,0.01 -0.01,0 -0.01,-0.01 -0.02,-0.01 0,0 0,0 0,-0.01 -0.01,0 -0.01,0 -0.01,-0.01 0,0 0,-0.01 0,-0.02l0 -0.04z"/>
  <path id="9" class="fil13" d="M1 0.31l0.01 0.01c0,0.01 -0.01,0.02 -0.01,0.02 -0.01,0 -0.02,0.01 -0.02,0 -0.01,0 -0.02,0 -0.03,-0.01 0,-0.01 0,-0.02 0,-0.03 0,-0.02 0,-0.03 0.01,-0.04 0.01,0 0.01,-0.01 0.03,0 0,0 0.01,0 0.02,0.01 0,0 0,0.01 0,0.01l-0.01 0.01c0,-0.01 0,-0.01 -0.01,-0.01 0,-0.01 0,-0.01 -0.01,-0.01 0,0 -0.01,0 -0.01,0.01 0,0 -0.01,0.01 -0.01,0.02 0,0.01 0,0.02 0.01,0.02 0,0.01 0,0.01 0.01,0.01 0,0 0.01,0 0.01,0 0,-0.01 0,-0.01 0.01,-0.02z"/>
  <path id="10" class="fil13" d="M1.09 0.36l-0.02 0 0 -0.02 -0.03 -0.01 -0.01 0.02 -0.02 0 0.04 -0.08 0.02 0 0.02 0.09zm-0.03 -0.04l0 -0.03 -0.02 0.03 0.02 0z"/>
  <polygon id="11" class="fil13" points="1.1,0.36 1.12,0.29 1.09,0.29 1.1,0.27 1.15,0.29 1.15,0.3 1.13,0.3 1.12,0.37 "/>
  <polygon id="12" class="fil13" points="1.15,0.37 1.17,0.29 1.18,0.29 1.16,0.38 "/>
  <polygon id="13" class="fil13" points="1.2,0.39 1.19,0.29 1.2,0.3 1.21,0.37 1.24,0.31 1.26,0.31 1.21,0.39 "/>
  <path id="14" class="fil13" d="M1.3 0.42l-0.01 -0.01 0 -0.02 -0.03 -0.01 -0.01 0.02 -0.02 0 0.05 -0.08 0.02 0.01 0 0.09zm-0.01 -0.04l-0.01 -0.04 -0.01 0.03 0.02 0.01z"/>
  <polygon class="fil13" points="0.63,0.45 0.63,0.36 0.68,0.36 0.68,0.38 0.64,0.38 0.64,0.4 0.67,0.4 0.67,0.41 0.64,0.41 0.64,0.45 "/>
  <polygon id="1" class="fil13" points="0.69,0.45 0.69,0.36 0.7,0.36 0.7,0.45 "/>
  <path id="2" class="fil13" d="M0.71 0.42l0.02 0c0,0 0,0.01 0,0.01 0.01,0 0.01,0 0.02,0 0,0 0,0 0.01,0 0,0 0,0 0,-0.01 0,0 0,0 0,0 0,0 0,-0.01 -0.01,-0.01 0,0 0,0 -0.01,0 -0.01,0 -0.01,-0.01 -0.02,-0.01 0,0 0,-0.01 0,-0.02 0,0 0,-0.01 0,-0.01 0,0 0.01,-0.01 0.01,-0.01 0,0 0.01,0 0.01,0 0.01,0 0.02,0 0.03,0.01 0,0 0,0.01 0,0.02l-0.01 0c0,-0.01 0,-0.01 -0.01,-0.01 0,-0.01 0,-0.01 -0.01,-0.01 0,0 0,0 -0.01,0.01 0,0 0,0 0,0 0,0 0,0.01 0,0.01 0.01,0 0.01,0 0.02,0 0.01,0.01 0.01,0.01 0.01,0.01 0.01,0 0.01,0 0.01,0.01 0,0 0.01,0.01 0.01,0.01 0,0.01 -0.01,0.01 -0.01,0.02 0,0 0,0 -0.01,0.01 0,0 -0.01,0 -0.01,0 -0.01,0 -0.02,0 -0.03,-0.01 0,0 0,-0.01 -0.01,-0.02z"/>
  <path id="3" class="fil13" d="M0.84 0.42l0.01 0c0,0.01 0,0.02 -0.01,0.02 -0.01,0.01 -0.01,0.01 -0.02,0.01 -0.01,0 -0.02,-0.01 -0.02,-0.01 -0.01,-0.01 -0.01,-0.02 -0.01,-0.04 0,-0.01 0,-0.02 0.01,-0.03 0,-0.01 0.01,-0.01 0.02,-0.01 0.01,0 0.02,0 0.02,0.01 0.01,0 0.01,0.01 0.01,0.01l-0.01 0.01c0,-0.01 -0.01,-0.01 -0.01,-0.01 0,0 -0.01,-0.01 -0.01,-0.01 -0.01,0 -0.01,0.01 -0.01,0.01 -0.01,0.01 -0.01,0.01 -0.01,0.02 0,0.01 0,0.02 0.01,0.03 0,0 0,0 0.01,0 0,0 0.01,0 0.01,0 0,0 0.01,-0.01 0.01,-0.01z"/>
  <path id="4" class="fil13" d="M0.93 0.45l-0.01 0 -0.01 -0.02 -0.03 0 -0.01 0.02 -0.01 0 0.03 -0.09 0.01 0 0.03 0.09zm-0.03 -0.04l-0.01 -0.03 -0.01 0.03 0.02 0z"/>
  <polygon id="5" class="fil13" points="0.94,0.45 0.94,0.36 0.96,0.36 0.96,0.43 0.99,0.43 0.99,0.45 "/>
  <path class="fil14" d="M0.59 1.52l-0.02 0 -0.01 0.04c0,0 0,0 -0.01,0.01 0,0 0,0 -0.01,0 0,0 0,0 0,-0.01 0,0 0,-0.01 0,-0.01l0.02 -0.11c0,0 0.01,-0.01 0.01,-0.01 0,0 0.01,0 0.01,0l0.03 0.01c0.01,0 0.02,0.01 0.02,0.01 0.01,0 0.01,0.01 0.01,0.01 0.01,0.01 0.01,0.01 0.01,0.02 0,0 0,0.01 0,0.02 -0.01,0.01 -0.01,0.02 -0.02,0.02 -0.01,0.01 -0.02,0.01 -0.04,0zm0.01 -0.06l-0.02 -0.01 -0.01 0.05 0.02 0c0.01,0 0.01,0 0.02,0 0,0 0,0 0.01,0 0,0 0,-0.01 0,-0.01 0,-0.01 0,-0.01 0,-0.02 0,0 -0.01,-0.01 -0.02,-0.01z"/>
  <path id="1" class="fil14" d="M0.71 1.59l-0.01 -0.02 -0.05 -0.01 0 0.02c-0.01,0.01 -0.01,0.01 -0.01,0.01 0,0 0,0.01 -0.01,0 0,0 0,0 -0.01,0 0,0 0,-0.01 0,-0.01 0,0 0,0 0,-0.01 0,0 0,0 0.01,0l0.04 -0.09c0,0 0,-0.01 0,-0.01 0,0 0,-0.01 0,-0.01 0.01,0 0.01,0 0.01,0 0,-0.01 0.01,-0.01 0.01,-0.01 0,0 0.01,0.01 0.01,0.01 0,0 0,0 0,0 0,0.01 0,0.01 0.01,0.01 0,0.01 0,0.01 0,0.01l0.02 0.1c0,0.01 0,0.01 0,0.01 0,0.01 0,0.01 0,0.01 0,0 -0.01,0.01 -0.01,0.01 0,0 0,-0.01 0,-0.01 -0.01,0 -0.01,0 -0.01,0 0,0 0,0 0,-0.01 0,0 0,0 0,0zm-0.05 -0.05l0.04 0 -0.01 -0.06 -0.03 0.06z"/>
  <path id="2" class="fil14" d="M0.82 1.48l0 0.07c0,0.01 0,0.01 0,0.02 0,0 0,0.01 0,0.01 0,0.01 -0.01,0.02 -0.01,0.02 -0.01,0.01 -0.02,0.01 -0.03,0.01 -0.01,0 -0.01,0 -0.02,-0.01 0,0 -0.01,-0.01 -0.01,-0.01 0,-0.01 -0.01,-0.01 -0.01,-0.01 0,-0.01 0,-0.01 0,-0.02 0,0 0,-0.01 0.01,-0.01 0,0 0,0 0,0 0.01,0 0.01,0 0.01,0 0,0 0,0.01 0,0.01 0.01,0.01 0.01,0.01 0.01,0.01 0,0.01 0,0.01 0,0.01 0,0 0.01,0 0.01,0 0.01,0 0.02,0 0.02,-0.02l0 -0.08c0,-0.01 0,-0.01 0,-0.01 0,-0.01 0.01,-0.01 0.01,-0.01 0,0 0.01,0 0.01,0.01 0,0 0,0 0,0.01z"/>
  <path id="3" class="fil14" d="M0.92 1.57l0 -0.02 -0.05 0.01 -0.01 0.02c0,0.01 0,0.01 0,0.02 0,0 0,0 -0.01,0 0,0 0,0 -0.01,0 0,0 0,0 0,-0.01 0,0 0,0 0,0 0,-0.01 0,-0.01 0,-0.01l0.02 -0.1c0,0 0,-0.01 0,-0.01 0,0 0,-0.01 0,-0.01 0,0 0.01,0 0.01,-0.01 0,0 0,0 0.01,0 0,0 0,0 0,0 0.01,0 0.01,0 0.01,0.01 0,0 0,0 0.01,0 0,0 0,0.01 0,0.01l0.05 0.09c0,0 0,0.01 0,0.01 0,0 0,0.01 0,0.01 0,0 -0.01,0 -0.01,0.01 0,0 0,0 0,0 -0.01,-0.01 -0.01,-0.01 -0.01,-0.01 0,0 0,0 0,0 0,-0.01 0,-0.01 -0.01,-0.01zm-0.05 -0.03l0.04 -0.01 -0.03 -0.05 -0.01 0.06zm0 -0.12l0.01 -0.01c0.01,0 0.01,0 0.01,0 0,0 0,0.01 0,0.01 -0.01,0 -0.01,0.01 -0.01,0.01 -0.01,0.01 -0.01,0.01 -0.01,0.01 0,0 0,0 -0.01,0.01 0,0 0,-0.01 0,-0.01 0,0 0,0 0,0l0 -0.01c0,-0.01 0,-0.01 0.01,-0.01 0,0 0,0 0,0z"/>
  <path id="4" class="fil14" d="M0.97 1.44l0.07 0.07 -0.03 -0.08c0,-0.01 0,-0.01 0,-0.02 0.01,0 0.01,0 0.01,0 0,0 0.01,0 0.01,0 0,0 0.01,0 0.01,0.01l0.02 0.11c0.01,0.01 0.01,0.01 0,0.02 -0.01,0 -0.01,0 -0.01,0 0,0 0,0 0,0 -0.01,0 -0.01,-0.01 -0.01,-0.01 0,0 0,0 -0.01,0l-0.06 -0.06 0.02 0.07c0,0.01 0,0.01 0,0.02 0,0 0,0 -0.01,0 0,0.01 0,0.01 -0.01,0 0,0 0,0 0,-0.01l-0.03 -0.1c0,-0.01 0,-0.01 0,-0.01 0,-0.01 0,-0.01 0,-0.01 0,0 0.01,-0.01 0.01,-0.01 0,0 0,0 0,0 0.01,0 0.01,0 0.01,0 0,0.01 0,0.01 0,0.01 0.01,0 0.01,0 0.01,0z"/>
 </g>
</svg>
